<?xml version="1.0" encoding="UTF-8"?><svg id="Layer_1" xmlns="http://www.w3.org/2000/svg" viewBox="0 0 857.39 91.19"><defs><style>.cls-1{fill:#e7ecf6;}</style></defs><path class="cls-1" d="M49.31,14.65v9.97c0,10.58.15,22.3.69,32.73,5.86.84,12.18,1.07,18.04,1.07s12.1-.23,17.96-1.07c.3-2.13.53-4.26.69-6.39h16.67c-.23,5.94-.69,11.42-1.68,17.66-11.27,1.29-22.46,1.67-33.65,1.67s-22.3-.38-33.72-1.67c-1.14-14.23-1.68-29.76-1.68-44v-9.97h16.67Z"/><path class="cls-1" d="M164.94,21.65l21.7,47.81h-15.91l-4.19-9.06h-39.36l-4.19,9.06h-15.99l21.77-47.81c6.55-.53,12.03-.68,18.04-.68s11.49.15,18.12.68ZM139.97,32.69l-7.84,16.9h29.38l-7.84-16.9c-1.45-.23-4.8-.3-6.85-.3s-5.33.08-6.85.3Z"/><path class="cls-1" d="M191.74,67.63c-1.14-12.18-1.67-25.42-1.67-37.6v-8.53h16.29v8.53c0,8.98.3,19.03.76,27.86,5.86.76,12.03.91,17.89.91s12.03-.15,17.89-.91c.53-8.83.76-18.88.76-27.86v-8.53h16.29v8.53c0,12.26-1.29,25.42-1.67,37.6-11.19,1.83-22.15,2.59-33.27,2.59s-22.08-.76-33.27-2.59Z"/><path class="cls-1" d="M341.17,69.45h-15.99v-.08l-33.49-36.08c-2.13-.15-3.81-.15-5.86-.15v36.31h-15.99V21.5h2.06c9.29,0,18.27.23,29.46.84l23.83,26.8v-27.63h15.99v47.96Z"/><path class="cls-1" d="M404.42,57.88c.3-2.06.53-3.88.61-6.01h16.52c-.15,5.33-.61,10.35-1.45,15.76-11.34,1.83-22.53,2.59-33.8,2.59s-22.53-.76-33.88-2.59c-.99-7.54-1.52-14.62-1.52-22.15s.53-14.62,1.52-22.15c11.34-1.83,22.61-2.59,33.88-2.59s22.46.53,33.8,2.06c.84,5.63,1.29,10.81,1.45,16.29h-16.52c-.08-1.98-.3-3.88-.61-6.01-5.63-.76-12.48-.91-18.12-.91s-12.56.15-18.27.91c-.38,4.26-.61,8.15-.61,12.41s.23,8.15.61,12.41c5.71.76,12.56.91,18.27.91s12.48-.15,18.12-.91Z"/><path class="cls-1" d="M447.28,39.23h39.66v-17.74h15.99v47.96h-15.99v-18.19h-39.66v18.19h-15.91V21.5h15.91v17.74Z"/><path class="cls-1" d="M512.97,21.5h6.24c12.18-.53,20.48-.76,26.34-.76,10.43,0,21.16.53,31.89,1.75.99,5.33,1.52,10.73,1.52,15.99s-.46,10.66-1.52,15.99c-10.66.91-21.47,1.29-31.97,1.29-3.96,0-9.29,0-16.59-.15v13.85h-15.91V21.5ZM561.99,45.02c.3-2.21.46-4.26.46-6.55,0-2.13-.15-4.34-.46-6.55-3.73-.3-11.87-.46-16.52-.46-6.39,0-11.19.15-16.52.46h-.08v13.24l.08-.08c5.33.38,10.12.46,16.52.46s11.19-.15,16.52-.53Z"/><path class="cls-1" d="M637.2,21.65l21.69,47.81h-15.91l-4.19-9.06h-39.36l-4.19,9.06h-15.99l21.77-47.81c6.55-.53,12.03-.68,18.04-.68s11.5.15,18.12.68ZM612.23,32.69l-7.84,16.9h29.38l-7.84-16.9c-1.45-.23-4.8-.3-6.85-.3s-5.33.08-6.85.3Z"/><path class="cls-1" d="M732.97,23.32c3.35,7.54,4.8,14.62,4.8,22.15s-1.45,14.62-4.8,22.15c-11.5,1.9-22.91,2.59-34.1,2.59-7.16,0-13.93-.23-33.72-.76V21.5c19.18-.46,26.11-.76,33.8-.76,11.11,0,22.53.76,34.03,2.59ZM717.66,58.49c1.52-4.42,2.21-8.53,2.21-13.02s-.68-8.6-2.21-13.02c-6.09-.69-11.42-.84-18.8-.84s-12.1.3-17.81.76v26.11c5.71.53,10.66.84,17.81.84s12.71-.15,18.8-.84Z"/><path class="cls-1" d="M806.6,40.35c-.9,0-1.63.28-2.21.85s-.86,1.33-.86,2.3.29,1.73.86,2.3,1.31.85,2.21.85,1.63-.28,2.21-.85c.58-.57.86-1.33.86-2.3s-.29-1.73-.86-2.3c-.58-.57-1.31-.85-2.21-.85Z"/><path class="cls-1" d="M811.16,8.95h-39.86c-7.51,0-13.59,6.09-13.59,13.59v39.86c0,7.51,6.09,13.59,13.59,13.59h39.86c7.51,0,13.59-6.09,13.59-13.59V22.54c0-7.51-6.09-13.59-13.59-13.59ZM781.95,49.95h-3.87v-7.36c0-.76-.21-1.34-.63-1.74-.42-.4-.96-.61-1.61-.61-.74,0-1.32.22-1.75.67-.43.45-.65,1.11-.65,1.99v7.05h-3.87v-18.07h3.87v6.38c.77-1.05,2-1.58,3.69-1.58,1.38,0,2.53.47,3.45,1.42.92.95,1.38,2.26,1.38,3.92v7.92ZM796.82,49.95h-3.87v-1.21c-.78,1.05-2.01,1.58-3.69,1.58-1.38,0-2.53-.47-3.45-1.42s-1.38-2.26-1.38-3.92v-7.92h3.87v7.36c0,.76.21,1.34.63,1.74.42.4.96.61,1.61.61.74,0,1.33-.22,1.76-.67.43-.45.65-1.11.65-1.99v-7.05h3.87v12.91ZM811.74,48.34c-1.2,1.32-2.66,1.98-4.36,1.98s-2.93-.52-3.85-1.58v1.21h-3.87v-18.07h3.87v6.38c.91-1.05,2.19-1.58,3.85-1.58s3.16.66,4.36,1.98c1.2,1.32,1.81,2.93,1.81,4.84s-.6,3.52-1.81,4.84Z"/></svg>